<svg width="800" height="600" viewBox="0 0 800 600" fill="none" xmlns="http://www.w3.org/2000/svg">
<g id="result (1) 1">
<g id="Group">
<g id="Astro-Boy">
<g id="Group_2">
<path id="Vector" fill-rule="evenodd" clip-rule="evenodd" d="M476.62 341.316C480.761 326.459 472.06 311.034 457.202 306.892L379.515 285.236C364.657 281.094 349.232 289.794 345.091 304.651L330.082 358.493C325.94 373.351 334.64 388.776 349.498 392.918L427.185 414.573C442.043 418.715 457.469 410.015 461.611 395.158L476.62 341.316Z" fill="white" stroke="black" stroke-width="2.6" stroke-miterlimit="1.5" stroke-linecap="round" stroke-linejoin="round"/>
</g>
<g id="Group_3">
<g id="Group_4">
<path id="Vector_2" d="M300.951 348.983C307.578 350.831 314.31 347.451 315.987 341.434C317.664 335.417 313.651 329.042 307.024 327.195C300.397 325.348 293.665 328.728 291.988 334.744C290.311 340.761 294.324 347.136 300.951 348.983Z" fill="white" stroke="black" stroke-width="2.27" stroke-miterlimit="1.5" stroke-linecap="round" stroke-linejoin="round"/>
</g>
<g id="Group_5">
<path id="Vector_3" fill-rule="evenodd" clip-rule="evenodd" d="M377.149 304.206L314.985 322.891C312.021 323.782 309.531 325.814 308.065 328.54C306.599 331.267 306.276 334.464 307.167 337.428L307.168 337.432C308.908 343.22 315.01 346.502 320.799 344.762L383.661 325.868L377.15 304.206L377.149 304.206Z" fill="white" stroke="black" stroke-width="2.29" stroke-miterlimit="1.5" stroke-linecap="round" stroke-linejoin="round"/>
</g>
</g>
<g id="Group_6">
<g id="Group_7">
<path id="Vector_4" d="M499.344 395.135C498.794 388.277 493.301 383.123 487.075 383.622C480.849 384.121 476.248 390.085 476.797 396.943C477.347 403.801 482.84 408.955 489.066 408.456C495.293 407.957 499.894 401.993 499.344 395.135Z" fill="white" stroke="black" stroke-width="2.27" stroke-miterlimit="1.5" stroke-linecap="round" stroke-linejoin="round"/>
</g>
<g id="Group_8">
<path id="Vector_5" fill-rule="evenodd" clip-rule="evenodd" d="M431.049 339.038L470.013 390.953C471.871 393.429 474.637 395.065 477.702 395.502C480.766 395.939 483.879 395.14 486.355 393.282L486.357 393.28C491.191 389.652 492.169 382.792 488.541 377.958L449.139 325.459L431.048 339.037L431.049 339.038Z" fill="white" stroke="black" stroke-width="2.29" stroke-miterlimit="1.5" stroke-linecap="round" stroke-linejoin="round"/>
</g>
</g>
<g id="Group_9">
<g id="Group_10">
<path id="Vector_6" d="M407.681 459.139C413.045 454.832 414.224 447.392 410.314 442.522C406.403 437.651 398.884 437.195 393.52 441.502C388.155 445.809 386.976 453.249 390.887 458.12C394.797 462.99 402.316 463.447 407.681 459.139Z" fill="white" stroke="black" stroke-width="2.27" stroke-miterlimit="1.5" stroke-linecap="round" stroke-linejoin="round"/>
</g>
<g id="Group_11">
<path id="Vector_7" fill-rule="evenodd" clip-rule="evenodd" d="M415.726 371.126L394.664 432.525C393.659 435.453 393.859 438.66 395.219 441.441C396.58 444.222 398.989 446.348 401.917 447.352L401.92 447.353C407.637 449.315 413.862 446.27 415.823 440.553L437.121 378.464L415.726 371.125L415.726 371.126Z" fill="white" stroke="black" stroke-width="2.29" stroke-miterlimit="1.5" stroke-linecap="round" stroke-linejoin="round"/>
</g>
</g>
<g id="Group_12">
<g id="Group_13">
<path id="Vector_8" d="M363.427 445.055C368.574 440.489 369.386 433 365.241 428.328C361.095 423.655 353.563 423.568 348.417 428.134C343.27 432.7 342.458 440.189 346.603 444.861C350.748 449.534 358.281 449.62 363.427 445.055Z" fill="white" stroke="black" stroke-width="2.27" stroke-miterlimit="1.5" stroke-linecap="round" stroke-linejoin="round"/>
</g>
<g id="Group_14">
<path id="Vector_9" fill-rule="evenodd" clip-rule="evenodd" d="M367.138 356.751L349.118 419.111C348.259 422.085 348.616 425.279 350.111 427.99C351.607 430.7 354.117 432.705 357.091 433.565L357.095 433.566C362.901 435.244 368.968 431.897 370.646 426.09L388.868 363.03L367.138 356.751L367.138 356.751Z" fill="white" stroke="black" stroke-width="2.29" stroke-miterlimit="1.5" stroke-linecap="round" stroke-linejoin="round"/>
</g>
</g>
<g id="Group_15">
<path id="Vector_10" d="M388.328 405.277C420.525 414.252 453.901 395.428 462.876 363.231C471.851 331.035 453.026 297.659 420.83 288.684C388.633 279.709 355.257 298.533 346.282 330.73C337.307 362.926 356.132 396.302 388.328 405.277Z" fill="#EBEBEB"/>
<g id="Group_16">
<g id="Group_17">
<path id="Vector_11" d="M344.228 342.759C363.298 347.856 381.441 354.611 400.381 360.172C423.596 366.988 441.456 368.899 459.269 373.508" stroke="black" stroke-width="2.25" stroke-miterlimit="1.5" stroke-linecap="round" stroke-linejoin="round"/>
</g>
</g>
<path id="Vector_12" d="M388.328 405.277C420.525 414.252 453.901 395.428 462.876 363.231C471.851 331.035 453.026 297.659 420.83 288.684C388.633 279.709 355.257 298.533 346.282 330.73C337.307 362.926 356.132 396.302 388.328 405.277Z" stroke="black" stroke-width="2.06" stroke-miterlimit="1.5" stroke-linecap="round" stroke-linejoin="round"/>
</g>
<g id="Group_18">
<path id="Vector_13" d="M415.358 312.044C444.627 320.203 474.968 303.09 483.127 273.821C491.286 244.552 474.173 214.21 444.905 206.052C415.636 197.893 385.295 215.006 377.136 244.275C368.977 273.544 386.09 303.885 415.358 312.044Z" fill="#EBEBEB"/>
<g id="Group_19">
<g id="Group_20">
<path id="Vector_14" fill-rule="evenodd" clip-rule="evenodd" d="M395.62 237.017C396.37 234.464 398.104 232.313 400.44 231.037C402.775 229.762 405.522 229.467 408.077 230.218L468.511 247.972C472.288 249.082 474.45 253.043 473.341 256.82L463.385 290.709C462.28 294.469 458.977 297.162 455.071 297.486C430.711 299.398 408.856 293.27 389.728 278.347C386.672 275.943 385.39 271.923 386.486 268.194C388.776 260.315 392.869 246.383 395.62 237.018L395.62 237.017Z" fill="white" stroke="black" stroke-width="2.38" stroke-miterlimit="1.5" stroke-linecap="round" stroke-linejoin="round"/>
</g>
</g>
<path id="Vector_15" d="M415.358 312.044C444.627 320.203 474.968 303.09 483.127 273.821C491.286 244.552 474.173 214.21 444.905 206.052C415.636 197.893 385.295 215.006 377.136 244.275C368.977 273.544 386.09 303.885 415.358 312.044Z" stroke="black" stroke-width="2.02" stroke-miterlimit="1.5" stroke-linecap="round" stroke-linejoin="round"/>
</g>
<path id="Vector_16" d="M413.788 198.993L412.65 198.676L410.054 207.988L411.192 208.306L413.788 198.993Z" fill="white" stroke="black" stroke-width="2.27" stroke-miterlimit="1.5" stroke-linecap="round" stroke-linejoin="round"/>
<g id="Group_21">
<path id="Vector_17" d="M413.033 198.894C414.519 199.308 416.059 198.439 416.473 196.953C416.888 195.468 416.019 193.927 414.533 193.513C413.047 193.099 411.507 193.968 411.093 195.454C410.679 196.939 411.548 198.479 413.033 198.894Z" fill="white" stroke="black" stroke-width="2.27" stroke-miterlimit="1.5" stroke-linecap="round" stroke-linejoin="round"/>
</g>
<g id="Group_22">
<path id="Vector_18" d="M331.994 378.88C331.994 381.448 322.777 380.98 320.47 381.441C307.745 383.986 295.323 384.643 282.054 384.643C246.868 384.643 217.608 389.236 187.934 374.399C180.162 370.513 172.861 364.942 166.165 361.594C162.402 359.712 158.413 354.516 154.64 352.63C152.411 351.515 142.162 342.386 141.194 342.386" stroke="black" stroke-width="2.27" stroke-miterlimit="1.5" stroke-linecap="round" stroke-linejoin="round"/>
</g>
</g>
<g id="Group_23">
<path id="Vector_19" fill-rule="evenodd" clip-rule="evenodd" d="M644.809 147.391L647.191 154.721H654.898L648.663 159.251L651.045 166.581L644.809 162.051L638.574 166.581L640.956 159.251L634.721 154.721H642.428L644.809 147.391Z" fill="white" stroke="black" stroke-width="2.78" stroke-miterlimit="1.5" stroke-linecap="round" stroke-linejoin="round"/>
</g>
<g id="Group_24">
<path id="Vector_20" fill-rule="evenodd" clip-rule="evenodd" d="M287.516 231.823L291.018 242.602H302.352L293.182 249.264L296.685 260.044L287.516 253.382L278.346 260.044L281.849 249.264L272.679 242.602H284.013L287.516 231.823Z" fill="white" stroke="black" stroke-width="1.89" stroke-miterlimit="1.5" stroke-linecap="round" stroke-linejoin="round"/>
</g>
<g id="Group_25">
<path id="Vector_21" fill-rule="evenodd" clip-rule="evenodd" d="M190.028 293.607L192.745 301.282H201.541L194.425 306.025L197.143 313.7L190.028 308.956L182.912 313.7L185.63 306.025L178.514 301.282H187.31L190.028 293.607Z" fill="white" stroke="black" stroke-width="2.54" stroke-miterlimit="1.5" stroke-linecap="round" stroke-linejoin="round"/>
</g>
<g id="Group_26">
<path id="Vector_22" fill-rule="evenodd" clip-rule="evenodd" d="M296.381 398.866L299.883 409.646H311.218L302.048 416.308L305.551 427.087L296.381 420.425L287.211 427.087L290.714 416.308L281.544 409.646H292.879L296.381 398.866Z" fill="white" stroke="black" stroke-width="1.89" stroke-miterlimit="1.5" stroke-linecap="round" stroke-linejoin="round"/>
</g>
<g id="Group_27">
<path id="Vector_23" fill-rule="evenodd" clip-rule="evenodd" d="M532.809 256.016L536.312 266.795H547.646L538.476 273.457L541.979 284.237L532.809 277.575L523.64 284.237L527.143 273.457L517.973 266.795H529.307L532.809 256.016Z" fill="white" stroke="black" stroke-width="1.89" stroke-miterlimit="1.5" stroke-linecap="round" stroke-linejoin="round"/>
</g>
<g id="Group_28">
<path id="Vector_24" fill-rule="evenodd" clip-rule="evenodd" d="M663.103 275.986L665.372 283.316H672.717L666.775 287.846L669.045 295.176L663.103 290.646L657.161 295.176L659.431 287.846L653.489 283.316H660.833L663.103 275.986Z" fill="white" stroke="black" stroke-width="2.85" stroke-miterlimit="1.5" stroke-linecap="round" stroke-linejoin="round"/>
</g>
<g id="Group_29">
<path id="Vector_25" fill-rule="evenodd" clip-rule="evenodd" d="M624.638 233.052L626.795 239.003H633.777L628.129 242.68L630.286 248.63L624.638 244.953L618.989 248.63L621.147 242.68L615.499 239.003H622.48L624.638 233.052Z" fill="white" stroke="black" stroke-width="3.23" stroke-miterlimit="1.5" stroke-linecap="round" stroke-linejoin="round"/>
</g>
<g id="Group_30">
<path id="Vector_26" fill-rule="evenodd" clip-rule="evenodd" d="M428.735 147.955L432.237 158.734H443.571L434.401 165.396L437.904 176.175L428.735 169.513L419.565 176.175L423.068 165.396L413.898 158.734H425.232L428.735 147.955Z" fill="white" stroke="black" stroke-width="1.89" stroke-miterlimit="1.5" stroke-linecap="round" stroke-linejoin="round"/>
</g>
<g id="Group_31">
<path id="Vector_27" fill-rule="evenodd" clip-rule="evenodd" d="M521.595 161.428L525.098 172.207H536.432L527.262 178.869L530.765 189.648L521.595 182.986L512.426 189.648L515.928 178.869L506.759 172.207H518.093L521.595 161.428Z" fill="white" stroke="black" stroke-width="1.89" stroke-miterlimit="1.5" stroke-linecap="round" stroke-linejoin="round"/>
</g>
<g id="Group_32">
<path id="Vector_28" fill-rule="evenodd" clip-rule="evenodd" d="M594.804 345.631L596.961 353.306H603.943L598.295 358.049L600.453 365.724L594.804 360.981L589.155 365.724L591.313 358.049L585.665 353.306H592.647L594.804 345.631Z" fill="white" stroke="black" stroke-width="2.84" stroke-miterlimit="1.5" stroke-linecap="round" stroke-linejoin="round"/>
</g>
<g id="Group_33">
<path id="Vector_29" fill-rule="evenodd" clip-rule="evenodd" d="M539.174 447.566L540.883 453.516H546.414L541.939 457.193L543.649 463.143L539.174 459.466L534.699 463.143L536.408 457.193L531.933 453.516H537.465L539.174 447.566Z" fill="white" stroke="black" stroke-width="3.63" stroke-miterlimit="1.5" stroke-linecap="round" stroke-linejoin="round"/>
</g>
<g id="Group_34">
<path id="Vector_30" fill-rule="evenodd" clip-rule="evenodd" d="M371.166 492.05L373.66 500.07H381.73L375.201 505.027L377.695 513.046L371.166 508.09L364.637 513.046L367.131 505.027L360.603 500.07H368.673L371.166 492.05Z" fill="white" stroke="black" stroke-width="2.6" stroke-miterlimit="1.5" stroke-linecap="round" stroke-linejoin="round"/>
</g>
<g id="Group_35">
<path id="Vector_31" fill-rule="evenodd" clip-rule="evenodd" d="M331.806 138.319L334.299 147.028H342.369L335.84 152.411L338.334 161.121L331.806 155.738L325.277 161.121L327.771 152.411L321.242 147.028H329.312L331.806 138.319Z" fill="white" stroke="black" stroke-width="2.48" stroke-miterlimit="1.5" stroke-linecap="round" stroke-linejoin="round"/>
</g>
<g id="Group_36">
<path id="Vector_32" fill-rule="evenodd" clip-rule="evenodd" d="M174.309 462.174L177.25 469.848H186.771L179.069 474.592L182.011 482.267L174.309 477.523L166.606 482.267L169.548 474.592L161.846 469.848H171.367L174.309 462.174Z" fill="white" stroke="black" stroke-width="2.43" stroke-miterlimit="1.5" stroke-linecap="round" stroke-linejoin="round"/>
</g>
<g id="Group_37">
<g id="Group_38">
<path id="Vector_33" d="M196.342 161.333C222.32 161.333 243.378 140.274 243.378 114.296C243.378 88.3174 222.32 67.258 196.342 67.258C170.365 67.258 149.306 88.3174 149.306 114.296C149.306 140.274 170.365 161.333 196.342 161.333Z" fill="#E1DEDE" stroke="black" stroke-width="3.18" stroke-miterlimit="1.5" stroke-linecap="round" stroke-linejoin="round"/>
</g>
<g id="Group_39">
<path id="Vector_34" fill-rule="evenodd" clip-rule="evenodd" d="M145.669 107.497C132.338 109.477 124.85 112.163 124.85 114.963C124.85 120.79 156.7 125.522 195.928 125.522C235.158 125.522 267.007 120.79 267.007 114.963C267.007 112.163 259.518 109.477 246.188 107.497L242.907 107.984C255.366 109.835 262.366 112.345 262.366 114.963C262.366 120.41 232.596 124.832 195.926 124.832C159.259 124.832 129.486 120.41 129.486 114.963C129.486 112.345 136.486 109.835 148.946 107.984L145.665 107.497H145.669Z" fill="white" stroke="black" stroke-width="4.03" stroke-miterlimit="1.5" stroke-linecap="round" stroke-linejoin="round"/>
</g>
<path id="Vector_35" d="M208.122 92.7806C210.88 92.7806 213.115 90.6691 213.115 88.0644C213.115 85.4596 210.88 83.3481 208.122 83.3481C205.364 83.3481 203.128 85.4596 203.128 88.0644C203.128 90.6691 205.364 92.7806 208.122 92.7806Z" fill="white" stroke="black" stroke-width="3.4" stroke-miterlimit="1.5" stroke-linecap="round" stroke-linejoin="round"/>
<path id="Vector_36" d="M179.547 142.718C182.459 142.718 184.819 140.358 184.819 137.446C184.819 134.535 182.459 132.175 179.547 132.175C176.636 132.175 174.276 134.535 174.276 137.446C174.276 140.358 176.636 142.718 179.547 142.718Z" fill="white" stroke="black" stroke-width="3.4" stroke-miterlimit="1.5" stroke-linecap="round" stroke-linejoin="round"/>
</g>
</g>
</g>
</svg>
