<?xml version="1.0" encoding="UTF-8"?>
<!DOCTYPE svg  PUBLIC '-//W3C//DTD SVG 1.1//EN'  'http://www.w3.org/Graphics/SVG/1.1/DTD/svg11.dtd'>
<svg clip-rule="evenodd" fill-rule="evenodd" stroke-linecap="round" stroke-linejoin="round" stroke-miterlimit="1.5" version="1.1" viewBox="0 0 800 600" xml:space="preserve" xmlns="http://www.w3.org/2000/svg" xmlns:serif="http://www.serif.com/">
    <g transform="matrix(.52897 0 0 .52897 -298.89 31.465)">
        <g transform="matrix(.80152 .22343 -.22343 .80152 744.57 -136.7)">
            <g transform="matrix(.85703 0 0 .89267 147.79 63.946)" serif:id="Jet Pack">
                <path d="m1074.2 604.47c0-39.256-33.2-71.127-74.09-71.127h-213.8c-40.889 0-74.086 31.871-74.086 71.127v142.26c0 39.256 33.197 71.128 74.086 71.128h213.8c40.89 0 74.09-31.872 74.09-71.128v-142.26z" fill="#fff" stroke="#000" stroke-width="2.6px"/>
            </g>
            <g transform="translate(20.365 10.183)" serif:id="Left Arm">
                <g transform="matrix(1 0 -1.1102e-16 1 -19.364 -2.9792)">
                    <ellipse cx="687.63" cy="694.59" rx="28.302" ry="25.695" fill="#fff" stroke="#000" stroke-width="2.27px"/>
                </g>
                <g transform="matrix(.83316 -.52681 .53443 .84521 -161.07 494.45)">
                    <path d="m788.18 583.99h-149.61c-7.135 0-13.978 2.794-19.023 7.767s-7.879 11.718-7.879 18.751v8e-3c0 13.732 11.293 24.864 25.224 24.864h151.29v-51.39z" fill="#fff" stroke="#000" stroke-width="2.29px"/>
                </g>
            </g>
            <g transform="matrix(-.34465 -.93873 .93873 -.34465 707.94 1582)" serif:id="Right Arm">
                <g transform="matrix(1 0 -1.1102e-16 1 -19.364 -2.9792)">
                    <ellipse cx="687.63" cy="694.59" rx="28.302" ry="25.695" fill="#fff" stroke="#000" stroke-width="2.27px"/>
                </g>
                <g transform="matrix(.83316 -.52681 .53443 .84521 -161.07 494.45)">
                    <path d="m788.18 583.99h-149.61c-7.135 0-13.978 2.794-19.023 7.767s-7.879 11.718-7.879 18.751v8e-3c0 13.732 11.293 24.864 25.224 24.864h151.29v-51.39z" fill="#fff" stroke="#000" stroke-width="2.29px"/>
                </g>
            </g>
            <g transform="matrix(.58301 -.81246 .81246 .58301 17.029 1028.2)" serif:id="Left Leg">
                <g transform="matrix(1 0 -1.1102e-16 1 -19.364 -2.9792)">
                    <ellipse cx="687.63" cy="694.59" rx="28.302" ry="25.695" fill="#fff" stroke="#000" stroke-width="2.27px"/>
                </g>
                <g transform="matrix(.83316 -.52681 .53443 .84521 -161.07 494.45)">
                    <path d="m788.18 583.99h-149.61c-7.135 0-13.978 2.794-19.023 7.767s-7.879 11.718-7.879 18.751v8e-3c0 13.732 11.293 24.864 25.224 24.864h151.29v-51.39z" fill="#fff" stroke="#000" stroke-width="2.29px"/>
                </g>
            </g>
            <g transform="matrix(.54239 -.84013 .84013 .54239 -81.117 1072)" serif:id="Right Leg">
                <g transform="matrix(1 0 -1.1102e-16 1 -19.364 -2.9792)">
                    <ellipse cx="687.63" cy="694.59" rx="28.302" ry="25.695" fill="#fff" stroke="#000" stroke-width="2.27px"/>
                </g>
                <g transform="matrix(.83316 -.52681 .53443 .84521 -161.07 494.45)">
                    <path d="m788.18 583.99h-149.61c-7.135 0-13.978 2.794-19.023 7.767s-7.879 11.718-7.879 18.751v8e-3c0 13.732 11.293 24.864 25.224 24.864h151.29v-51.39z" fill="#fff" stroke="#000" stroke-width="2.29px"/>
                </g>
            </g>
            <g transform="matrix(.97628 0 0 1.2181 -32.124 -219.9)">
                <ellipse cx="969.32" cy="722.26" rx="140.84" ry="112.88" fill="#ebebeb"/>
                <clipPath id="b">
                    <ellipse cx="969.32" cy="722.26" rx="140.84" ry="112.88"/>
                </clipPath>
                <g clip-path="url(#b)">
                    <g transform="matrix(1.0452 -.0089452 .010937 .8209 3.4282 188.77)">
                        <path d="m784.98 686.02c43.948 0 86.855 4.181 130.79 5.276 53.853 1.341 93.366-4.943 134.33-5.276" fill="none" stroke="#000" stroke-width="2.25px"/>
                    </g>
                </g>
                <ellipse cx="969.32" cy="722.26" rx="140.84" ry="112.88" fill="none" stroke="#000" stroke-width="2.06px"/>
            </g>
            <g transform="matrix(.97341 0 0 1.2573 29.383 -168.5)">
                <ellipse cx="911.33" cy="493.4" rx="128.41" ry="99.417" fill="#ebebeb"/>
                <clipPath id="a">
                    <ellipse cx="911.33" cy="493.4" rx="128.41" ry="99.417"/>
                </clipPath>
                <g clip-path="url(#a)">
                    <g transform="matrix(-.92061 -.0099009 .014374 -.80109 1758.1 883.44)">
                        <path d="m1026.9 501.16c0 6.003-2.68 11.761-7.45 16.006s-11.24 6.629-17.99 6.629h-159.68c-9.98 0-18.07-7.197-18.07-16.076v-79.667c0-8.839 6.11-16.767 15.378-19.951 57.884-19.624 115.42-20.258 172.61-0.126 9.15 3.26 15.14 11.145 15.14 19.911 0.06 18.506 0.06 51.259 0.06 73.274z" fill="#fff" stroke="#000" stroke-width="2.38px"/>
                    </g>
                </g>
                <ellipse cx="911.33" cy="493.4" rx="128.41" ry="99.417" fill="none" stroke="#000" stroke-width="2.02px"/>
            </g>
                <rect x="841.39" y="330.39" width="2.685" height="21.965" fill="#fff" stroke="#000" stroke-width="2.27px" serif:id="Antenna"/>
                <g transform="translate(3.1727 .4881)" serif:id="Antenna Ball">
                    <circle cx="839.19" cy="323.8" r="6.345" fill="#fff" stroke="#000" stroke-width="2.27px"/>
                </g>
            <g transform="matrix(.96327 -.26852 .26852 .96327 -242.46 380.74)">
                <path d="m874.32 651.96c0 5.833-20.941 4.77-26.184 5.818-28.91 5.782-57.133 7.274-87.28 7.274-79.942 0-146.42 10.435-213.84-23.275-17.657-8.829-34.245-21.486-49.459-29.093-8.548-4.275-17.612-16.08-26.184-20.366-5.065-2.532-28.349-23.274-30.548-23.274" fill="none" stroke="#000" stroke-width="2.27px"/>
            </g>
        </g>
            <g transform="matrix(.68 0 0 .68 1479.8 -66.895)">
                <path d="m447.4 420.66l6.621 20.378h21.427l-17.335 12.594 6.622 20.378-17.335-12.594-17.335 12.594 6.622-20.378-17.335-12.594h21.427l6.621-20.378z" fill="#fff" stroke="#000" stroke-width="2.78px"/>
            </g>
            <g transform="translate(661.18 -41.89)">
                <path d="m447.4 420.66l6.621 20.378h21.427l-17.335 12.594 6.622 20.378-17.335-12.594-17.335 12.594 6.622-20.378-17.335-12.594h21.427l6.621-20.378z" fill="#fff" stroke="#000" stroke-width="1.89px"/>
            </g>
            <g transform="matrix(.776 0 0 .712 577.1 196.06)">
                <path d="m447.4 420.66l6.621 20.378h21.427l-17.335 12.594 6.622 20.378-17.335-12.594-17.335 12.594 6.622-20.378-17.335-12.594h21.427l6.621-20.378z" fill="#fff" stroke="#000" stroke-width="2.54px"/>
            </g>
            <g transform="translate(677.94 273.9)">
                <path d="m447.4 420.66l6.621 20.378h21.427l-17.335 12.594 6.622 20.378-17.335-12.594-17.335 12.594 6.622-20.378-17.335-12.594h21.427l6.621-20.378z" fill="#fff" stroke="#000" stroke-width="1.89px"/>
            </g>
            <g transform="translate(1124.9 3.8462)">
                <path d="m447.4 420.66l6.621 20.378h21.427l-17.335 12.594 6.622 20.378-17.335-12.594-17.335 12.594 6.622-20.378-17.335-12.594h21.427l6.621-20.378z" fill="#fff" stroke="#000" stroke-width="1.89px"/>
            </g>
            <g transform="matrix(.648 0 0 .68 1528.7 176.21)">
                <path d="m447.4 420.66l6.621 20.378h21.427l-17.335 12.594 6.622 20.378-17.335-12.594-17.335 12.594 6.622-20.378-17.335-12.594h21.427l6.621-20.378z" fill="#fff" stroke="#000" stroke-width="2.85px"/>
            </g>
            <g transform="matrix(.616 0 0 .552 1470.3 148.89)">
                <path d="m447.4 420.66l6.621 20.378h21.427l-17.335 12.594 6.622 20.378-17.335-12.594-17.335 12.594 6.622-20.378-17.335-12.594h21.427l6.621-20.378z" fill="#fff" stroke="#000" stroke-width="3.23px"/>
            </g>
            <g transform="translate(928.15 -200.44)">
                <path d="m447.4 420.66l6.621 20.378h21.427l-17.335 12.594 6.622 20.378-17.335-12.594-17.335 12.594 6.622-20.378-17.335-12.594h21.427l6.621-20.378z" fill="#fff" stroke="#000" stroke-width="1.89px"/>
            </g>
            <g transform="translate(1103.7 -174.97)">
                <path d="m447.4 420.66l6.621 20.378h21.427l-17.335 12.594 6.622 20.378-17.335-12.594-17.335 12.594 6.622-20.378-17.335-12.594h21.427l6.621-20.378z" fill="#fff" stroke="#000" stroke-width="1.89px"/>
            </g>
            <g transform="matrix(.616 0 0 .712 1413.9 294.41)">
                <path d="m447.4 420.66l6.621 20.378h21.427l-17.335 12.594 6.622 20.378-17.335-12.594-17.335 12.594 6.622-20.378-17.335-12.594h21.427l6.621-20.378z" fill="#fff" stroke="#000" stroke-width="2.84px"/>
            </g>
            <g transform="matrix(.488 0 0 .552 1366 554.42)">
                <path d="m447.4 420.66l6.621 20.378h21.427l-17.335 12.594 6.622 20.378-17.335-12.594-17.335 12.594 6.622-20.378-17.335-12.594h21.427l6.621-20.378z" fill="#fff" stroke="#000" stroke-width="3.63px"/>
            </g>
            <g transform="matrix(.712 0 0 .744 948.17 557.75)">
                <path d="m447.4 420.66l6.621 20.378h21.427l-17.335 12.594 6.622 20.378-17.335-12.594-17.335 12.594 6.622-20.378-17.335-12.594h21.427l6.621-20.378z" fill="#fff" stroke="#000" stroke-width="2.6px"/>
            </g>
            <g transform="matrix(.712 0 0 .808 873.76 -137.89)">
                <path d="m447.4 420.66l6.621 20.378h21.427l-17.335 12.594 6.622 20.378-17.335-12.594-17.335 12.594 6.622-20.378-17.335-12.594h21.427l6.621-20.378z" fill="#fff" stroke="#000" stroke-width="2.48px"/>
            </g>
            <g transform="matrix(.84 0 0 .712 518.75 514.73)">
                <path d="m447.4 420.66l6.621 20.378h21.427l-17.335 12.594 6.622 20.378-17.335-12.594-17.335 12.594 6.622-20.378-17.335-12.594h21.427l6.621-20.378z" fill="#fff" stroke="#000" stroke-width="2.43px"/>
            </g>
            <g transform="matrix(.55575 0 0 .55575 718.11 -2.8226)">
                <g transform="matrix(1.0032 0 0 1.1303 -.74375 -16.522)">
                    <ellipse cx="391.95" cy="268.39" rx="159.49" ry="141.56" fill="#e1dede" stroke="#000" stroke-width="3.18px"/>
                </g>
                <g transform="matrix(1.1593 0 0 .28402 -166.18 106.74)">
                    <path d="m333.19 552.68c-39.114 23.716-61.087 55.881-61.087 89.42 0 69.795 93.454 126.46 208.56 126.46 115.11 0 208.56-56.665 208.56-126.46 0-33.539-21.974-65.704-61.087-89.42l-9.628 5.838c36.56 22.167 57.099 52.233 57.099 83.582 0 65.239-87.353 118.2-194.95 118.2-107.59 0-194.95-52.965-194.95-118.2 0-31.349 20.539-61.415 57.099-83.582l-9.628-5.838z" fill="#fff" stroke="#000" stroke-width="4.03px"/>
                </g>
                <ellipse cx="432.53" cy="197.61" rx="16.987" ry="16.043" fill="#fff" stroke="#000" stroke-width="3.4px"/>
                <circle cx="335.33" cy="365.59" r="17.931" fill="#fff" stroke="#000" stroke-width="3.4px"/>
            </g>
    </g>
</svg>
